# xmcd
#
# Track frame offsets:
#	150
#	17856
#	33123
#	47690
#	58866
#	63868
#	81143
#	91610
#	103756
#	121485
#	134595
#	139695
#	158322
#	182859
#	197783
#	205103
#	231204
#
# Disc length: 3090 seconds
#
# Revision: 1
# Processed by: cddbd v1.5.1PL2 Copyright (c) Steve Scherf et al.
# Submitted via: audiograbber 1.83.01
#
DISCID=e10c1011
DTITLE=Hayes Carll - Live at the Continental Club
DYEAR=1900
DGENRE=
TTITLE0=Wish I hadn't stayed so long
TTITLE1=Naked checkers
TTITLE2=Good Friends
TTITLE3=Sit in with the Band
TTITLE4=Band Introduction
TTITLE5=Take me away
TTITLE6=I've been everywhere
TTITLE7=Flowers and liquor
TTITLE8=When I paint my masterpiece
TTITLE9=Little Rock
TTITLE10=Banter(Eric Schulz' Birthday)
TTITLE11=Rivertown
TTITLE12=Arkansas Blues
TTITLE13=Heaven Above
TTITLE14=Song Intro
TTITLE15=Ain't enough of me to go around
TTITLE16=Data Track
EXTD=
EXTT0=
EXTT1=
EXTT2=
EXTT3=
EXTT4=
EXTT5=
EXTT6=
EXTT7=
EXTT8=
EXTT9=
EXTT10=
EXTT11=
EXTT12=
EXTT13=
EXTT14=
EXTT15=
EXTT16=
PLAYORDER=
